<svg width="1493" height="1054" version="1.1" xmlns="http://www.w3.org/2000/svg" desc="Created with imagetracer.js version 1.2.6" ><path fill="rgb(0,0,0)" stroke="rgb(0,0,0)" stroke-width="1" opacity="0" d="M 0 0 L 1493 0 L 1493 1054 L 0 1054 L 0 0 Z M 766 252 L 763 253 L 747 319 L 740 322 Q 733 325 732 332 L 712 331 L 703 329 L 692 329 L 681 327 L 677 319 Q 674 313 668 312 L 677 278 L 680 271 L 681 260 L 678 257 L 675 258 L 671 264 L 671 268 L 662 296 L 659 310 L 647 315 L 643 321 L 637 321 L 614 315 L 605 314 L 601 319 L 602 321 L 606 324 L 641 331 L 644 341 Q 649 347 657 349 L 659 358 L 659 365 L 661 371 L 662 383 L 662 385 L 663 386 L 665 403 L 661 405 L 653 415 L 607 405 L 601 405 Q 598 406 599 412 L 602 414 L 613 417 L 618 417 L 632 421 L 638 421 L 652 424 L 656 434 Q 660 440 670 441 L 671 443 L 671 448 L 675 464 L 675 470 L 677 475 L 677 481 L 679 487 L 680 497 L 675 500 L 669 507 L 669 509 L 663 509 L 657 507 L 610 500 L 607 499 L 603 502 L 604 508 L 628 513 L 667 519 L 670 527 Q 673 532 679 533 L 669 565 Q 668 571 673 572 L 677 571 L 687 543 L 688 537 L 698 532 L 706 523 L 731 523 L 732 524 L 746 524 L 747 525 L 763 525 L 767 533 L 774 538 L 764 567 Q 763 573 767 574 L 772 573 L 783 539 L 792 536 L 799 529 L 800 525 L 802 523 L 818 522 L 819 521 L 858 519 L 859 522 L 869 531 L 859 570 L 860 576 L 863 577 L 866 576 L 868 574 L 873 555 L 873 551 L 879 531 L 887 528 Q 894 524 895 515 L 900 512 L 932 507 L 937 504 Q 938 498 935 497 L 929 497 L 911 501 L 905 501 L 900 503 L 895 503 L 891 498 L 884 493 L 878 492 L 867 441 L 875 432 L 877 424 L 929 413 Q 931 412 930 407 L 927 404 L 877 414 L 874 411 Q 869 403 859 402 L 849 349 L 853 347 Q 855 348 854 345 L 856 345 L 860 336 L 865 333 L 870 333 L 886 329 L 912 325 L 920 323 L 922 321 Q 923 315 920 314 L 887 319 L 882 321 L 866 323 L 859 325 L 857 321 L 847 313 L 859 261 L 858 256 Q 859 253 853 254 L 849 260 L 846 278 L 844 282 L 841 299 L 837 313 L 829 317 L 824 323 L 823 328 L 822 329 L 811 329 L 803 331 L 786 331 L 785 332 Q 775 331 770 333 L 765 326 L 757 320 L 761 299 L 771 262 L 771 255 Q 770 251 766 252 Z M 1087 609 L 1080 612 Q 1075 615 1074 621 L 1074 665 L 1070 673 L 1064 678 L 1056 680 L 1050 680 L 1042 677 Q 1035 673 1033 664 L 1033 620 L 1031 616 L 1024 610 Q 1016 609 1013 611 L 1007 618 L 1007 625 L 1006 628 L 1006 640 L 1007 641 L 1006 645 L 1006 647 L 1007 649 L 1007 651 L 1006 658 L 1006 660 L 1007 661 L 1007 671 L 1009 678 L 1016 689 L 1018 692 L 1034 703 L 1051 707 L 1052 706 L 1068 705 L 1085 696 Q 1097 686 1101 668 L 1101 621 L 1098 615 Q 1094 610 1087 609 Z M 327 610 L 314 615 Q 303 622 300 637 L 300 645 L 302 652 L 309 662 Q 315 668 325 670 L 330 671 L 351 671 L 353 672 L 354 677 L 352 679 L 348 680 Q 328 683 318 676 Q 307 674 304 680 L 299 690 L 302 698 L 310 703 L 323 706 L 352 706 Q 361 704 368 700 Q 377 694 380 682 Q 382 665 375 659 Q 368 647 352 645 L 346 645 Q 344 642 338 644 L 335 645 L 327 643 L 326 640 L 327 637 L 336 635 L 338 636 L 352 636 L 362 639 Q 368 640 372 637 L 378 629 L 377 620 Q 372 612 361 610 L 327 610 Z M 426 610 L 422 612 L 417 619 L 417 634 L 417 638 L 417 653 L 416 655 L 416 657 L 417 661 L 416 665 L 417 669 L 416 671 Q 414 677 417 679 L 416 681 L 417 683 L 416 687 L 416 691 L 416 695 L 419 702 L 427 706 Q 434 707 438 704 Q 442 701 443 696 L 443 620 L 440 615 Q 437 608 426 610 Z M 491 610 L 486 612 L 480 620 L 480 697 L 482 701 Q 485 705 492 706 Q 498 707 501 704 L 505 700 L 507 692 L 506 690 L 506 677 L 507 676 L 506 672 L 506 655 L 510 656 L 511 659 L 516 663 L 518 666 L 522 668 L 523 671 L 531 677 L 535 678 Q 541 678 545 675 L 556 663 L 566 655 L 565 657 L 565 695 L 567 700 Q 570 705 578 706 L 582 706 L 588 703 L 592 696 L 592 623 L 589 615 L 582 610 Q 574 609 571 612 L 544 639 Q 545 641 543 640 L 539 645 L 537 646 L 533 645 L 532 642 Q 529 643 530 640 L 528 640 L 526 636 Q 523 637 524 634 L 522 634 L 522 632 L 520 632 L 520 631 L 517 628 L 514 624 L 511 622 L 509 619 L 506 618 Q 507 615 504 616 L 504 614 L 497 610 L 491 610 Z M 643 610 L 639 612 L 633 620 L 633 667 L 639 684 L 647 694 L 664 704 L 673 706 L 689 706 L 694 705 L 711 696 L 721 685 L 726 674 L 728 664 L 728 623 L 725 614 L 718 610 Q 710 609 707 612 L 701 620 L 701 664 L 697 673 Q 693 678 686 680 Q 672 681 666 675 L 660 666 L 660 621 L 657 615 Q 653 609 643 610 Z M 778 610 L 773 612 Q 768 615 767 621 L 767 697 L 770 702 L 777 706 L 784 706 L 790 703 L 793 698 L 794 693 L 793 689 L 794 687 L 793 682 L 794 678 L 793 675 L 794 671 L 833 671 L 837 669 Q 842 666 843 659 L 842 653 L 840 650 L 834 645 Q 827 647 826 644 L 821 645 L 817 644 L 816 645 L 794 645 L 793 638 L 795 636 L 843 636 L 847 634 L 852 627 Q 853 619 850 616 L 843 610 L 778 610 Z M 898 610 L 895 612 L 889 620 L 889 684 L 888 687 L 888 689 L 890 700 L 898 706 L 966 706 L 970 704 L 975 697 L 975 690 L 972 683 L 963 679 L 919 679 L 917 680 L 915 679 L 915 619 L 914 617 L 907 610 L 898 610 Z M 1144 610 L 1138 612 L 1131 621 Q 1130 629 1134 633 L 1153 652 L 1153 653 L 1156 655 Q 1155 657 1158 656 L 1158 659 L 1146 672 L 1138 678 L 1131 688 L 1132 699 L 1141 705 Q 1147 706 1151 704 L 1158 696 L 1162 693 L 1173 680 Q 1175 681 1174 678 L 1178 677 L 1196 699 L 1205 705 Q 1213 706 1217 703 L 1222 696 Q 1223 688 1220 685 L 1204 669 Q 1205 666 1203 667 L 1195 659 Q 1206 643 1220 632 L 1222 628 Q 1223 620 1220 617 L 1213 611 Q 1203 610 1200 614 L 1190 626 L 1177 639 L 1166 629 Q 1167 626 1165 627 L 1155 616 L 1150 611 L 1147 611 L 1144 610 Z " /><path fill="rgb(0,0,0)" stroke="rgb(0,0,0)" stroke-width="1" opacity="0" d="M 660.5 319 L 666.5 321 L 669 323.5 Q 671.7 325.8 671 331.5 L 665.5 339 L 658.5 340 L 651 334.5 L 650 327.5 L 654.5 321 L 660.5 319 Z " /><path fill="rgb(0,0,0)" stroke="rgb(0,0,0)" stroke-width="1" opacity="0" d="M 837.5 322 Q 847.6 320.4 850 326.5 L 851 335.5 L 847.5 340 Q 844.8 342.8 838.5 342 L 833 338.5 Q 829.8 336.2 831 329.5 L 835.5 323 L 837.5 322 Z " /><path fill="rgb(0,0,0)" stroke="rgb(0,0,0)" stroke-width="1" opacity="0" d="M 747.5 328 Q 756.4 327.1 759 332.5 L 761 339.5 L 758 346 L 751.5 349 L 747.5 349 L 742 346 L 740 342.5 L 740 334.5 L 744.5 329 L 747.5 328 Z " /><path fill="rgb(0,0,0)" stroke="rgb(0,0,0)" stroke-width="1" opacity="0" d="M 678 337 L 713.5 340 L 714.5 341 L 723.5 341 Q 725 343.5 730.5 342 L 732 343.5 Q 733.1 350.9 738.5 354 L 748 358 L 751 368.5 L 751 374.5 L 753 379.5 L 755 394.5 L 759 410.5 L 751 417.5 L 747.5 424 L 726.5 423 L 715.5 421 L 704.5 421 L 703.5 420 L 691 419 Q 689.6 409.6 682.5 405 L 676.5 403 L 674 400.5 L 667 348.5 L 677 340.5 L 678 337 Z " /><path fill="rgb(0,0,0)" stroke="rgb(0,0,0)" stroke-width="1" opacity="0" d="M 808.5 339 L 822.5 339 L 824 340.5 L 829.5 348 L 840 352.5 L 850 402.5 L 844 407.5 L 840 413.5 L 839 419 Q 834.1 420.8 825.5 420 L 824.5 421 L 786.5 423 L 778.5 413 L 768 409 L 763 386.5 L 762 376.5 L 760 371.5 L 758 356.5 L 766 349.5 L 769 342 L 792.5 341 L 793.5 340 L 807.5 340 L 808.5 339 Z " /><path fill="rgb(0,0,0)" stroke="rgb(0,0,0)" stroke-width="1" opacity="0" d="M 668.5 411 Q 676.1 410.1 679 413 L 682 418.5 L 682 424.5 L 676.5 431 L 669.5 432 L 662 426.5 L 661 420.5 Q 662.3 414.8 666.5 412 L 668.5 411 Z " /><path fill="rgb(0,0,0)" stroke="rgb(0,0,0)" stroke-width="1" opacity="0" d="M 855.5 411 Q 863.5 410 866 414.5 Q 869.2 417.8 868 425.5 L 865.5 429 Q 862.5 432 856.5 432 L 849 426.5 L 848 417.5 L 851.5 413 L 855.5 411 Z " /><path fill="rgb(0,0,0)" stroke="rgb(0,0,0)" stroke-width="1" opacity="0" d="M 765.5 418 L 768.5 419 Q 774.1 419.5 776 423.5 L 777 432.5 L 772.5 438 L 763.5 439 L 758 434.5 L 756 428.5 L 759 421 L 765.5 418 Z " /><path fill="rgb(0,0,0)" stroke="rgb(0,0,0)" stroke-width="1" opacity="0" d="M 689 429 L 698.5 429 L 707.5 431 L 718.5 431 L 728.5 433 L 741.5 433 Q 742.8 435.2 747.5 434 L 749 435.5 Q 749.7 441.9 754.5 444 L 766 449.5 L 773 488.5 L 775 493.5 L 775 500.5 L 766 507.5 L 763 515 L 706.5 513 L 705 511.5 L 704 506.5 L 696.5 499 L 690 497 L 687 483.5 L 687 477.5 L 684 466.5 L 680 439.5 L 688 432.5 L 689 429 Z " /><path fill="rgb(0,0,0)" stroke="rgb(0,0,0)" stroke-width="1" opacity="0" d="M 831.5 429 L 839.5 429 L 841 430.5 L 847.5 438 L 858 441 L 869 492.5 L 861 499.5 L 857 509 L 838.5 510 L 837.5 511 L 823.5 511 L 812.5 513 L 800.5 513 L 792.5 503 L 785 500 L 776 453.5 L 776 446.5 L 781 443 L 786 433 L 803.5 432 L 804.5 431 L 820.5 431 L 831.5 429 Z " /><path fill="rgb(0,0,0)" stroke="rgb(0,0,0)" stroke-width="1" opacity="0" d="M 873.5 501 Q 882.4 500.1 885 505.5 L 886 515.5 L 884 519 L 875.5 522 L 871.5 521 L 867 516.5 L 866 509.5 L 869.5 503 L 873.5 501 Z " /><path fill="rgb(0,0,0)" stroke="rgb(0,0,0)" stroke-width="1" opacity="0" d="M 684.5 505 L 688.5 505 L 695 509.5 L 697 517.5 L 691.5 525 L 684.5 526 L 679 524 L 676 518.5 L 676 512.5 L 681.5 506 L 684.5 505 Z " /><path fill="rgb(0,0,0)" stroke="rgb(0,0,0)" stroke-width="1" opacity="0" d="M 778.5 509 L 785.5 509 L 791 514.5 L 792 521.5 L 788.5 527 Q 785.6 530.6 777.5 529 L 774 527 L 771 518.5 Q 772.3 512.8 776.5 510 L 778.5 509 Z " /><path fill="rgb(0,0,0)" stroke="rgb(0,0,0)" stroke-width="1" opacity="0" d="M 327.5 617 L 352.5 617 L 354 618.5 Q 350.1 621.5 351 628 L 331.5 628 L 330.5 629 L 328.5 629 Q 323.8 629.3 322 632.5 Q 318.1 635.1 319 642.5 L 324.5 650 L 329.5 652 L 351.5 652 L 356.5 653 Q 364.6 655.9 369 662.5 L 373 670.5 L 373 678.5 Q 370.6 688.6 363.5 694 L 354.5 698 Q 343.7 696.3 337.5 699 L 333.5 698 L 331.5 698 Q 324.5 699.5 325 696.5 Q 328.4 693.7 327 687 L 352.5 687 L 360 681.5 L 361 672.5 L 355.5 665 L 349.5 663 L 326.5 663 Q 316.3 660.3 311 652.5 L 309 649.5 L 307 639.5 L 311 627.5 L 316.5 622 L 327.5 617 Z " /><path fill="rgb(0,0,0)" stroke="rgb(0,0,0)" stroke-width="1" opacity="0" d="M 427.5 617 L 431.5 617 L 435 619 L 436 624.5 L 432.5 629 L 429.5 630 L 424 626.5 L 423 624.5 L 424 620.5 L 427.5 617 Z " /><path fill="rgb(0,0,0)" stroke="rgb(0,0,0)" stroke-width="1" opacity="0" d="M 490.5 617 Q 497.8 615.8 499 620.5 L 500 623.5 L 496.5 629 L 491.5 630 L 487 626.5 Q 485.9 618.9 490.5 617 Z " /><path fill="rgb(0,0,0)" stroke="rgb(0,0,0)" stroke-width="1" opacity="0" d="M 576.5 617 L 580.5 617 L 585 621.5 Q 585.7 627.7 581.5 629 Q 575.4 629.8 573 628 L 572 621.5 L 574.5 618 L 576.5 617 Z " /><path fill="rgb(0,0,0)" stroke="rgb(0,0,0)" stroke-width="1" opacity="0" d="M 644.5 617 Q 651 616 652 620.5 L 653 624.5 L 649.5 629 Q 642.5 630.5 641 626.5 L 640 621.5 L 641 619 L 644.5 617 Z " /><path fill="rgb(0,0,0)" stroke="rgb(0,0,0)" stroke-width="1" opacity="0" d="M 711.5 617 Q 718.8 615.8 720 620.5 L 721 624.5 L 717.5 629 L 712.5 630 L 708 625.5 L 708 621.5 L 711.5 617 Z " /><path fill="rgb(0,0,0)" stroke="rgb(0,0,0)" stroke-width="1" opacity="0" d="M 778.5 617 Q 784.3 616.2 786 619.5 L 787 625.5 Q 785 629.5 779.5 630 L 776 629 L 774 625.5 L 774 621.5 L 776.5 618 L 778.5 617 Z " /><path fill="rgb(0,0,0)" stroke="rgb(0,0,0)" stroke-width="1" opacity="0" d="M 793 617 L 822.5 617 L 826 618 Q 824.4 620.1 825 625.5 L 826 628 L 807.5 628 L 805.5 629 Q 804.3 626.8 799.5 628 L 797.5 629 L 793 628 L 794 621.5 L 793 617 Z " /><path fill="rgb(0,0,0)" stroke="rgb(0,0,0)" stroke-width="1" opacity="0" d="M 836.5 617 L 840.5 617 L 845 621.5 Q 845.7 627.7 841.5 629 Q 835.5 630.5 834 627.5 L 833 620.5 L 836.5 617 Z " /><path fill="rgb(0,0,0)" stroke="rgb(0,0,0)" stroke-width="1" opacity="0" d="M 899.5 617 Q 906.8 615.8 908 620.5 Q 909.3 627.8 904.5 629 Q 899.1 629.6 897 628 Q 895.4 625.9 896 620.5 L 899.5 617 Z " /><path fill="rgb(0,0,0)" stroke="rgb(0,0,0)" stroke-width="1" opacity="0" d="M 1017.5 617 Q 1023.8 615.8 1025 619.5 L 1026 624.5 L 1022.5 629 L 1018.5 630 L 1014 626.5 L 1013 623.5 L 1015.5 618 L 1017.5 617 Z " /><path fill="rgb(0,0,0)" stroke="rgb(0,0,0)" stroke-width="1" opacity="0" d="M 1085.5 617 Q 1092 616 1093 620.5 L 1094 624.5 L 1090.5 629 L 1087.5 630 L 1082 626.5 Q 1080.5 618.5 1085.5 617 Z " /><path fill="rgb(0,0,0)" stroke="rgb(0,0,0)" stroke-width="1" opacity="0" d="M 1143.5 617 L 1149 619.5 L 1151 625.5 L 1147.5 630 Q 1141 631 1139 627.5 L 1138 622.5 L 1141.5 618 L 1143.5 617 Z " /><path fill="rgb(0,0,0)" stroke="rgb(0,0,0)" stroke-width="1" opacity="0" d="M 1206.5 618 Q 1213.8 616.8 1215 621.5 Q 1216.3 628.8 1211.5 630 L 1208.5 631 L 1204 629 Q 1202.4 626.9 1203 621.5 L 1206.5 618 Z " /><path fill="rgb(0,0,0)" stroke="rgb(0,0,0)" stroke-width="1" opacity="0" d="M 362.5 619 Q 368.3 618.2 370 621.5 L 371 627.5 L 370 630 L 366.5 632 L 363.5 632 L 359 628.5 L 358 625.5 L 362.5 619 Z " /><path fill="rgb(0,0,0)" stroke="rgb(0,0,0)" stroke-width="1" opacity="0" d="M 506.5 628 L 510 630 L 510 632 Q 512.7 630.9 512 633.5 L 517 637 L 520.5 642 Q 522.8 641.3 522 643.5 L 530 651.5 L 525 656.5 L 524 660 L 517 654.5 L 515.5 652 L 507 644.5 L 506 642.5 L 506.5 628 Z " /><path fill="rgb(0,0,0)" stroke="rgb(0,0,0)" stroke-width="1" opacity="0" d="M 564.5 628 L 566 628.5 L 566 630.5 L 565 632.5 L 565 643.5 L 560 650 L 551 657.5 L 549.5 660 L 542 651.5 L 548 644 L 551 642.5 L 556.5 636 L 559.5 634 L 564.5 628 Z " /><path fill="rgb(0,0,0)" stroke="rgb(0,0,0)" stroke-width="1" opacity="0" d="M 1196.5 629 L 1200.5 635 L 1204 636 L 1204 637.5 L 1189.5 652 L 1186 649.5 L 1183.5 646 Q 1181.3 646.8 1182 644.5 L 1196.5 629 Z " /><path fill="rgb(0,0,0)" stroke="rgb(0,0,0)" stroke-width="1" opacity="0" d="M 1156 630 L 1159 631.5 L 1161.5 635 L 1164 636.5 L 1166 639.5 L 1171 644.5 L 1168 647.5 L 1164.5 652 L 1152 640.5 Q 1152.7 637.9 1150 639 L 1150 636 L 1156 631.5 L 1156 630 Z " /><path fill="rgb(0,0,0)" stroke="rgb(0,0,0)" stroke-width="1" opacity="0" d="M 584.5 635 L 585 643.5 L 584 646.5 L 585 649.5 L 584 651.5 L 585 654.5 L 585 656.5 Q 586.3 661.3 584 662.5 L 584 664.5 L 585 673.5 L 584 680 Q 581.9 678.4 576.5 679 L 573 680 L 573 646.5 L 578 640 L 584.5 635 Z " /><path fill="rgb(0,0,0)" stroke="rgb(0,0,0)" stroke-width="1" opacity="0" d="M 1014.5 635 L 1021.5 637 L 1026 636 L 1025 642.5 L 1026 645.5 L 1025 650.5 L 1026 652.5 L 1025 653.5 L 1025 664.5 L 1031 678 Q 1033.7 676.9 1033 679.5 L 1038.5 684 L 1045.5 687 L 1061.5 687 Q 1071.2 683.7 1077 676.5 L 1082 665.5 L 1082 636 L 1090.5 637 L 1093 636 L 1093 668.5 Q 1089.4 682.4 1079.5 690 L 1063.5 698 L 1048.5 699 L 1039.5 697 L 1024 688 L 1016 674.5 L 1014 666.5 L 1014.5 635 Z " /><path fill="rgb(0,0,0)" stroke="rgb(0,0,0)" stroke-width="1" opacity="0" d="M 424 636 L 432.5 637 L 435 636 L 435 679.5 L 432.5 680 L 427.5 679 L 424 680 L 424 636 Z " /><path fill="rgb(0,0,0)" stroke="rgb(0,0,0)" stroke-width="1" opacity="0" d="M 487 636 Q 494.2 638.9 499 645.5 L 499 679.5 L 496.5 680 Q 495.2 677.7 490.5 679 L 488.5 680 L 487 678.5 L 487 667.5 L 488 662.5 L 487 661.5 L 487 636 Z " /><path fill="rgb(0,0,0)" stroke="rgb(0,0,0)" stroke-width="1" opacity="0" d="M 641 636 L 646.5 637 L 652 636 L 652 662.5 L 653 667.5 L 654 671.5 L 661.5 681 L 672.5 687 L 687.5 687 Q 698.1 683.6 704 675.5 L 708 666.5 L 708 642.5 L 709 640.5 L 708 636 L 716.5 637 L 720 636 L 720 666.5 L 719 670.5 Q 714.7 684.7 703.5 692 L 689.5 698 L 675.5 699 L 661.5 695 L 648 683.5 Q 642.9 677.1 641 667.5 L 641 636 Z " /><path fill="rgb(0,0,0)" stroke="rgb(0,0,0)" stroke-width="1" opacity="0" d="M 775.5 636 L 782.5 637 L 786 636 L 786 645 L 776.5 645 L 774 646 L 775 640.5 L 774 637.5 L 775.5 636 Z " /><path fill="rgb(0,0,0)" stroke="rgb(0,0,0)" stroke-width="1" opacity="0" d="M 896 636 L 903.5 637 L 908 636 L 908 679.5 L 905.5 680 Q 904.2 677.7 899.5 679 L 897 680 L 896 676.5 L 896 636 Z " /><path fill="rgb(0,0,0)" stroke="rgb(0,0,0)" stroke-width="1" opacity="0" d="M 1175.5 651 L 1177.5 651 L 1183 656.5 Q 1182.6 662.1 1178.5 664 L 1175 665 L 1175 663 Q 1172.3 664.1 1173 661.5 Q 1169.5 661 1170 656.5 L 1175.5 651 Z " /><path fill="rgb(0,0,0)" stroke="rgb(0,0,0)" stroke-width="1" opacity="0" d="M 778.5 652 Q 784.3 651.2 786 654.5 L 787 658.5 L 784.5 663 L 778.5 664 L 775 661.5 L 774 658.5 L 776.5 653 L 778.5 652 Z " /><path fill="rgb(0,0,0)" stroke="rgb(0,0,0)" stroke-width="1" opacity="0" d="M 794 652 L 802.5 652 L 803.5 653 L 805.5 653 L 830.5 652 L 835 655.5 Q 835.8 661.3 832.5 663 L 796.5 663 L 795.5 664 Q 791.2 662.3 794 660.5 L 794 652 Z " /><path fill="rgb(0,0,0)" stroke="rgb(0,0,0)" stroke-width="1" opacity="0" d="M 534.5 658 Q 539.6 657.4 541 660.5 L 542 666.5 L 541 669 L 536.5 671 L 531 668.5 L 530 661.5 L 534.5 658 Z " /><path fill="rgb(0,0,0)" stroke="rgb(0,0,0)" stroke-width="1" opacity="0" d="M 1163.5 664 L 1171 670.5 L 1157.5 686 Q 1155.3 686.8 1156 684.5 Q 1153.7 680.4 1149 680 L 1160 666 L 1163.5 664 Z " /><path fill="rgb(0,0,0)" stroke="rgb(0,0,0)" stroke-width="1" opacity="0" d="M 1188.5 664 L 1204 678.5 Q 1204.8 680.8 1202.5 680 L 1198 683.5 L 1196.5 686 L 1189 679.5 L 1182 670.5 L 1188.5 664 Z " /><path fill="rgb(0,0,0)" stroke="rgb(0,0,0)" stroke-width="1" opacity="0" d="M 775 670 Q 778.4 672.1 786 671 L 786 679.5 L 783.5 680 L 781.5 679 L 778.5 680 L 774 680 L 774 672.5 L 775 670 Z " /><path fill="rgb(0,0,0)" stroke="rgb(0,0,0)" stroke-width="1" opacity="0" d="M 311.5 683 Q 317.7 682.3 319 686.5 L 320 690.5 L 315.5 696 Q 309 697 308 692.5 L 307 688.5 L 311.5 683 Z " /><path fill="rgb(0,0,0)" stroke="rgb(0,0,0)" stroke-width="1" opacity="0" d="M 1143.5 685 Q 1148.3 685.3 1150 688.5 L 1151 692.5 L 1146.5 698 Q 1140.7 698.8 1139 695.5 L 1138 690.5 L 1141.5 686 L 1143.5 685 Z " /><path fill="rgb(0,0,0)" stroke="rgb(0,0,0)" stroke-width="1" opacity="0" d="M 428.5 686 Q 433.3 686.3 435 689.5 L 436 693.5 L 433.5 698 L 428.5 699 L 424 695.5 Q 422.5 688.5 426.5 687 L 428.5 686 Z " /><path fill="rgb(0,0,0)" stroke="rgb(0,0,0)" stroke-width="1" opacity="0" d="M 491.5 686 L 498 688.5 L 499 695.5 Q 498 700 491.5 699 L 488 696.5 L 487 691.5 L 489.5 687 L 491.5 686 Z " /><path fill="rgb(0,0,0)" stroke="rgb(0,0,0)" stroke-width="1" opacity="0" d="M 577.5 686 L 583 687 L 585 694.5 L 584 697 L 580.5 699 L 577.5 699 L 573 695.5 Q 571.5 688.5 575.5 687 L 577.5 686 Z " /><path fill="rgb(0,0,0)" stroke="rgb(0,0,0)" stroke-width="1" opacity="0" d="M 779.5 686 Q 784.3 686.3 786 689.5 L 787 693.5 L 785 698 L 778.5 699 L 775 696.5 L 774 691.5 L 777.5 687 L 779.5 686 Z " /><path fill="rgb(0,0,0)" stroke="rgb(0,0,0)" stroke-width="1" opacity="0" d="M 1206.5 686 Q 1212.8 684.8 1214 688.5 L 1215 694.5 L 1208.5 699 L 1204 697 L 1202 692.5 L 1204 687 L 1206.5 686 Z " /><path fill="rgb(0,0,0)" stroke="rgb(0,0,0)" stroke-width="1" opacity="0" d="M 899.5 687 Q 904.9 686.4 907 688 L 908 694.5 L 905.5 698 L 900.5 699 L 897 696.5 L 896 690.5 L 897 688 L 899.5 687 Z " /><path fill="rgb(0,0,0)" stroke="rgb(0,0,0)" stroke-width="1" opacity="0" d="M 915 687 L 948.5 687 L 949 690.5 L 948 695.5 L 949 698 L 924.5 698 L 920.5 699 L 918.5 699 L 915 697.5 L 916 691.5 L 915 687 Z " /><path fill="rgb(0,0,0)" stroke="rgb(0,0,0)" stroke-width="1" opacity="0" d="M 958.5 687 Q 966.5 685.5 968 690.5 Q 968.8 696.3 965.5 698 L 960.5 699 L 956 695.5 Q 955 689 958.5 687 Z " /><path fill="rgb(185,13,16)" stroke="rgb(185,13,16)" stroke-width="1" opacity="0.7450980392156863" d="M 765.5 252 Q 770.3 251.3 771 254.5 L 771 261.5 L 761 298.5 L 757 319.5 L 765 325.5 L 769.5 333 Q 775 330.5 784.5 332 L 785.5 331 L 802.5 331 L 810.5 329 L 821.5 329 L 823 327.5 L 824 322.5 L 828.5 317 L 837 313 L 841 298.5 L 844 281.5 L 846 277.5 L 849 259.5 L 852.5 254 Q 858.6 252.8 858 255.5 L 859 260.5 L 847 312.5 L 857 320.5 L 859 325 L 865.5 323 L 881.5 321 L 886.5 319 L 919.5 314 Q 923 315 922 320.5 L 919.5 323 L 911.5 325 L 885.5 329 L 869.5 333 L 864.5 333 L 860 335.5 L 856 345 L 854 345 Q 855.1 347.7 852.5 347 L 849 349 L 859 402 Q 869.1 403.1 874 410.5 L 876.5 414 L 926.5 404 L 930 406.5 Q 931.3 411.8 928.5 413 L 877 424 L 875 431.5 L 867 440.5 L 878 492 L 883.5 493 L 891 498 L 894.5 503 L 899.5 503 L 904.5 501 L 910.5 501 L 928.5 497 L 934.5 497 Q 938 498 937 503.5 L 931.5 507 L 899.5 512 L 895 514.5 Q 893.8 524.3 886.5 528 L 879 531 L 873 550.5 L 873 554.5 L 868 573.5 L 865.5 576 L 862.5 577 L 860 576 L 859 569.5 L 869 530.5 L 859 521.5 L 857.5 519 L 818.5 521 L 817.5 522 L 801.5 523 L 800 524.5 L 799 528.5 L 791.5 536 L 783 539 L 772 573 L 766.5 574 Q 762.8 572.8 764 566.5 L 774 537.5 L 767 533 L 762.5 525 L 746.5 525 L 745.5 524 L 731.5 524 L 730.5 523 L 705.5 523 L 697.5 532 L 688 536.5 L 687 542.5 L 677 571 L 672.5 572 Q 668 571 669 564.5 L 679 533 Q 672.9 532.1 670 526.5 L 666.5 519 L 627.5 513 L 604 508 L 603 501.5 L 606.5 499 L 609.5 500 L 656.5 507 L 662.5 509 L 669 509 L 669 506.5 L 674.5 500 L 680 496.5 L 679 486.5 L 677 480.5 L 677 474.5 L 675 469.5 L 675 463.5 L 671 447.5 L 671 442.5 L 669.5 441 Q 660.3 439.7 656 433.5 L 651.5 424 L 637.5 421 L 631.5 421 L 617.5 417 L 612.5 417 L 601.5 414 L 599 411.5 Q 597.8 406.3 600.5 405 L 606.5 405 L 652.5 415 L 660.5 405 L 665 402.5 L 663 385.5 L 662 384.5 L 662 382.5 L 661 370.5 L 659 364.5 L 659 357.5 L 657 349 Q 648.8 347.1 644 340.5 L 641 331 L 605.5 324 L 602 320.5 L 601 318.5 L 604.5 314 L 613.5 315 L 636.5 321 L 642.5 321 L 647 315 L 659 310 L 662 295.5 L 671 267.5 L 671 263.5 L 674.5 258 L 677.5 257 L 681 259.5 L 680 270.5 L 677 277.5 L 668 312 Q 674.1 312.9 677 318.5 L 680.5 327 L 691.5 329 L 702.5 329 L 711.5 331 L 732 332 Q 733 325.2 739.5 322 L 747 319 L 763 253 L 765.5 252 Z M 661 319 L 655 321 L 650 328 L 651 335 L 659 340 L 666 339 L 671 332 Q 672 326 669 324 L 667 321 L 661 319 Z M 838 322 L 836 323 L 831 330 Q 830 336 833 339 L 839 342 Q 845 343 848 340 L 851 336 L 850 327 Q 848 320 838 322 Z M 748 328 L 745 329 L 740 335 L 740 343 L 742 346 L 748 349 L 752 349 L 758 346 L 761 340 L 759 333 Q 756 327 748 328 Z M 678 337 L 677 341 L 667 349 L 674 401 L 677 403 L 683 405 Q 690 410 691 419 L 704 420 L 705 421 L 716 421 L 727 423 L 748 424 L 751 418 L 759 411 L 755 395 L 753 380 L 751 375 L 751 369 L 748 358 L 739 354 Q 733 351 732 344 L 731 342 Q 725 344 724 341 L 715 341 L 714 340 L 678 337 Z M 809 339 L 808 340 L 794 340 L 793 341 L 769 342 L 766 350 L 758 357 L 760 372 L 762 377 L 763 387 L 768 409 L 779 413 L 787 423 L 825 421 L 826 420 Q 834 421 839 419 L 840 414 L 844 408 L 850 403 L 840 353 L 830 348 L 824 341 L 823 339 L 809 339 Z M 669 411 L 667 412 Q 662 415 661 421 L 662 427 L 670 432 L 677 431 L 682 425 L 682 419 L 679 413 Q 676 410 669 411 Z M 856 411 L 852 413 L 848 418 L 849 427 L 857 432 Q 863 432 866 429 L 868 426 Q 869 418 866 415 Q 863 410 856 411 Z M 766 418 L 759 421 L 756 429 L 758 435 L 764 439 L 773 438 L 777 433 L 776 424 Q 774 419 769 419 L 766 418 Z M 689 429 L 688 433 L 680 440 L 684 467 L 687 478 L 687 484 L 690 497 L 697 499 L 704 507 L 705 512 L 707 513 L 763 515 L 766 508 L 775 501 L 775 494 L 773 489 L 766 450 L 755 444 Q 750 442 749 436 L 748 434 Q 743 435 742 433 L 729 433 L 719 431 L 708 431 L 699 429 L 689 429 Z M 832 429 L 821 431 L 805 431 L 804 432 L 786 433 L 781 443 L 776 447 L 776 454 L 785 500 L 793 503 L 801 513 L 813 513 L 824 511 L 838 511 L 839 510 L 857 509 L 861 500 L 869 493 L 858 441 L 848 438 L 841 431 L 840 429 L 832 429 Z M 874 501 L 870 503 L 866 510 L 867 517 L 872 521 L 876 522 L 884 519 L 886 516 L 885 506 Q 882 500 874 501 Z M 685 505 L 682 506 L 676 513 L 676 519 L 679 524 L 685 526 L 692 525 L 697 518 L 695 510 L 689 505 L 685 505 Z M 779 509 L 777 510 Q 772 513 771 519 L 774 527 L 778 529 Q 786 531 789 527 L 792 522 L 791 515 L 786 509 L 779 509 Z " /><path fill="rgb(185,13,16)" stroke="rgb(185,13,16)" stroke-width="1" opacity="0.7450980392156863" d="M 1086.5 609 Q 1094.3 609.7 1098 614.5 L 1101 620.5 L 1101 667.5 Q 1097.1 686.1 1084.5 696 L 1067.5 705 L 1051.5 706 L 1050.5 707 L 1033.5 703 L 1018 691.5 L 1016 688.5 L 1009 677.5 L 1007 670.5 L 1007 660.5 L 1006 659.5 L 1006 657.5 L 1007 650.5 L 1007 648.5 L 1006 646.5 L 1006 644.5 L 1007 640.5 L 1006 639.5 L 1006 627.5 L 1007 624.5 L 1007 617.5 L 1012.5 611 Q 1016 608.5 1023.5 610 L 1031 615.5 L 1033 619.5 L 1033 663.5 Q 1034.9 672.6 1041.5 677 L 1049.5 680 L 1055.5 680 L 1063.5 678 L 1070 672.5 L 1074 664.5 L 1074 620.5 Q 1075.3 614.8 1079.5 612 L 1086.5 609 Z M 1018 617 L 1016 618 L 1013 624 L 1014 627 L 1019 630 L 1023 629 L 1026 625 L 1025 620 Q 1024 616 1018 617 Z M 1086 617 Q 1081 618 1082 627 L 1088 630 L 1091 629 L 1094 625 L 1093 621 Q 1092 616 1086 617 Z M 1015 635 L 1014 667 L 1016 675 L 1024 688 L 1040 697 L 1049 699 L 1064 698 L 1080 690 Q 1089 682 1093 669 L 1093 636 L 1091 637 L 1082 636 L 1082 666 L 1077 677 Q 1071 684 1062 687 L 1046 687 L 1039 684 L 1033 680 Q 1034 677 1031 678 L 1025 665 L 1025 654 L 1026 653 L 1025 651 L 1026 646 L 1025 643 L 1026 636 L 1022 637 L 1015 635 Z " /><path fill="rgb(185,13,16)" stroke="rgb(185,13,16)" stroke-width="1" opacity="0.7450980392156863" d="M 326.5 610 L 360.5 610 Q 371.8 611.7 377 619.5 L 378 628.5 L 371.5 637 Q 368.2 639.7 361.5 639 L 351.5 636 L 337.5 636 L 335.5 635 L 327 637 L 326 639.5 L 327 643 L 334.5 645 L 337.5 644 Q 343.8 642.2 345.5 645 L 351.5 645 Q 368.4 646.6 375 658.5 Q 382.2 665.3 380 681.5 Q 376.7 693.7 367.5 700 Q 361 704.5 351.5 706 L 322.5 706 L 309.5 703 L 302 697.5 L 299 689.5 L 303.5 680 Q 306.9 674.4 317.5 676 Q 328 682.5 347.5 680 L 351.5 679 L 354 676.5 L 353 672 L 350.5 671 L 329.5 671 L 324.5 670 Q 314.9 667.6 309 661.5 L 302 651.5 L 300 644.5 L 300 636.5 Q 302.9 621.9 313.5 615 L 326.5 610 Z M 328 617 L 317 622 L 311 628 L 307 640 L 309 650 L 311 653 Q 316 660 327 663 L 350 663 L 356 665 L 361 673 L 360 682 L 353 687 L 327 687 Q 328 694 325 697 Q 325 700 332 698 L 334 698 L 338 699 Q 344 696 355 698 L 364 694 Q 371 689 373 679 L 373 671 L 369 663 Q 365 656 357 653 L 352 652 L 330 652 L 325 650 L 319 643 Q 318 635 322 633 Q 324 629 329 629 L 331 629 L 332 628 L 351 628 Q 350 621 354 619 L 353 617 L 328 617 Z M 363 619 L 358 626 L 359 629 L 364 632 L 367 632 L 370 630 L 371 628 L 370 622 Q 368 618 363 619 Z M 312 683 L 307 689 L 308 693 Q 309 697 316 696 L 320 691 L 319 687 Q 318 682 312 683 Z " /><path fill="rgb(185,13,16)" stroke="rgb(185,13,16)" stroke-width="1" opacity="0.7450980392156863" d="M 425.5 610 Q 436.6 608.4 440 614.5 L 443 619.5 L 443 695.5 Q 441.8 701.3 437.5 704 Q 433.9 706.9 426.5 706 L 419 701.5 L 416 694.5 L 416 690.5 L 416 686.5 L 417 682.5 L 416 680.5 L 417 678.5 Q 414.3 676.8 416 670.5 L 417 668.5 L 416 664.5 L 417 660.5 L 416 656.5 L 416 654.5 L 417 652.5 L 417 637.5 L 417 633.5 L 417 618.5 L 421.5 612 L 425.5 610 Z M 428 617 L 424 621 L 423 625 L 424 627 L 430 630 L 433 629 L 436 625 L 435 619 L 432 617 L 428 617 Z M 424 636 L 424 680 L 428 679 L 433 680 L 435 680 L 435 636 L 433 637 L 424 636 Z M 429 686 L 427 687 Q 423 689 424 696 L 429 699 L 434 698 L 436 694 L 435 690 Q 433 686 429 686 Z " /><path fill="rgb(185,13,16)" stroke="rgb(185,13,16)" stroke-width="1" opacity="0.7450980392156863" d="M 490.5 610 L 496.5 610 L 504 614 L 504 616 Q 506.7 614.9 506 617.5 L 509 619 L 510.5 622 L 513.5 624 L 516.5 628 L 520 630.5 L 520 632 L 522 632 L 522 634 L 524 634 Q 522.9 636.7 525.5 636 L 528 640 L 530 640 Q 528.9 642.7 531.5 642 L 533 645 L 536.5 646 L 539 645 L 542.5 640 Q 544.8 640.8 544 638.5 L 570.5 612 Q 573.8 608.8 581.5 610 L 589 614.5 L 592 622.5 L 592 695.5 L 587.5 703 L 581.5 706 L 577.5 706 Q 570.1 704.9 567 699.5 L 565 694.5 L 565 656.5 L 565.5 655 L 556 662.5 L 544.5 675 Q 541.3 678.3 534.5 678 L 530.5 677 L 523 670.5 L 521.5 668 L 518 665.5 L 516 662.5 L 511 658.5 L 509.5 656 L 506 655 L 506 671.5 L 507 675.5 L 506 676.5 L 506 689.5 L 507 691.5 L 505 699.5 L 500.5 704 Q 497.6 706.6 491.5 706 Q 484.9 705.1 482 700.5 L 480 696.5 L 480 619.5 L 485.5 612 L 490.5 610 Z M 491 617 Q 486 619 487 627 L 492 630 L 497 629 L 500 624 L 499 621 Q 498 616 491 617 Z M 577 617 L 575 618 L 572 622 L 573 628 Q 575 630 582 629 Q 586 628 585 622 L 581 617 L 577 617 Z M 507 628 L 506 643 L 507 645 L 516 652 L 517 655 L 524 660 L 525 657 L 530 652 L 522 644 Q 523 641 521 642 L 517 637 L 512 634 Q 513 631 510 632 L 510 630 L 507 628 Z M 565 628 L 560 634 L 557 636 L 551 643 L 548 644 L 542 652 L 550 660 L 551 658 L 560 650 L 565 644 L 565 633 L 566 631 L 566 629 L 565 628 Z M 585 635 L 578 640 L 573 647 L 573 680 L 577 679 Q 582 678 584 680 L 585 674 L 584 665 L 584 663 Q 586 661 585 657 L 585 655 L 584 652 L 585 650 L 584 647 L 585 644 L 585 635 Z M 487 636 L 487 662 L 488 663 L 487 668 L 487 679 L 489 680 L 491 679 Q 495 678 497 680 L 499 680 L 499 646 Q 494 639 487 636 Z M 535 658 L 530 662 L 531 669 L 537 671 L 541 669 L 542 667 L 541 661 Q 540 657 535 658 Z M 492 686 L 490 687 L 487 692 L 488 697 L 492 699 Q 498 700 499 696 L 498 689 L 492 686 Z M 578 686 L 576 687 Q 572 689 573 696 L 578 699 L 581 699 L 584 697 L 585 695 L 583 687 L 578 686 Z " /><path fill="rgb(185,13,16)" stroke="rgb(185,13,16)" stroke-width="1" opacity="0.7450980392156863" d="M 642.5 610 Q 653.3 608.7 657 614.5 L 660 620.5 L 660 665.5 L 665.5 675 Q 671.8 681.2 685.5 680 Q 692.8 677.8 697 672.5 L 701 663.5 L 701 619.5 L 706.5 612 Q 709.8 608.8 717.5 610 L 725 614 L 728 622.5 L 728 663.5 L 726 673.5 L 721 684.5 L 710.5 696 L 693.5 705 L 688.5 706 L 672.5 706 L 663.5 704 L 647 694 L 639 683.5 L 633 666.5 L 633 619.5 L 638.5 612 L 642.5 610 Z M 645 617 L 641 619 L 640 622 L 641 627 Q 643 631 650 629 L 653 625 L 652 621 Q 651 616 645 617 Z M 712 617 L 708 622 L 708 626 L 713 630 L 718 629 L 721 625 L 720 621 Q 719 616 712 617 Z M 641 636 L 641 668 Q 643 677 648 684 L 662 695 L 676 699 L 690 698 L 704 692 Q 715 685 719 671 L 720 667 L 720 636 L 717 637 L 708 636 L 709 641 L 708 643 L 708 667 L 704 676 Q 698 684 688 687 L 673 687 L 662 681 L 654 672 L 653 668 L 652 663 L 652 636 L 647 637 L 641 636 Z " /><path fill="rgb(185,13,16)" stroke="rgb(185,13,16)" stroke-width="1" opacity="0.7450980392156863" d="M 777.5 610 L 842.5 610 L 850 615.5 Q 853.2 618.8 852 626.5 L 846.5 634 L 842.5 636 L 794.5 636 L 793 637.5 L 794 645 L 815.5 645 L 816.5 644 L 820.5 645 L 825.5 644 Q 827.3 646.8 833.5 645 L 840 649.5 L 842 652.5 L 843 658.5 Q 841.9 665.9 836.5 669 L 832.5 671 L 794 671 L 793 674.5 L 794 677.5 L 793 681.5 L 794 686.5 L 793 688.5 L 794 692.5 L 793 697.5 L 789.5 703 L 783.5 706 L 776.5 706 L 770 701.5 L 767 696.5 L 767 620.5 Q 768.3 614.8 772.5 612 L 777.5 610 Z M 779 617 L 777 618 L 774 622 L 774 626 L 776 629 L 780 630 Q 785 630 787 626 L 786 620 Q 784 616 779 617 Z M 793 617 L 794 622 L 793 628 L 798 629 L 800 628 Q 804 627 806 629 L 808 628 L 826 628 L 825 626 Q 824 620 826 618 L 823 617 L 793 617 Z M 837 617 L 833 621 L 834 628 Q 836 631 842 629 Q 846 628 845 622 L 841 617 L 837 617 Z M 776 636 L 774 638 L 775 641 L 774 646 L 777 645 L 786 645 L 786 636 L 783 637 L 776 636 Z M 779 652 L 777 653 L 774 659 L 775 662 L 779 664 L 785 663 L 787 659 L 786 655 Q 784 651 779 652 Z M 794 652 L 794 661 Q 791 662 796 664 L 797 663 L 833 663 Q 836 661 835 656 L 831 652 L 806 653 L 804 653 L 803 652 L 794 652 Z M 775 670 L 774 673 L 774 680 L 779 680 L 782 679 L 784 680 L 786 680 L 786 671 Q 778 672 775 670 Z M 780 686 L 778 687 L 774 692 L 775 697 L 779 699 L 785 698 L 787 694 L 786 690 Q 784 686 780 686 Z " /><path fill="rgb(185,13,16)" stroke="rgb(185,13,16)" stroke-width="1" opacity="0.7450980392156863" d="M 897.5 610 L 906.5 610 L 914 616.5 L 915 618.5 L 915 678.5 L 916.5 680 L 918.5 679 L 962.5 679 L 972 683 L 975 689.5 L 975 696.5 L 969.5 704 L 965.5 706 L 897.5 706 L 890 699.5 L 888 688.5 L 888 686.5 L 889 683.5 L 889 619.5 L 894.5 612 L 897.5 610 Z M 900 617 L 896 621 Q 895 626 897 628 Q 899 630 905 629 Q 909 628 908 621 Q 907 616 900 617 Z M 896 636 L 896 677 L 897 680 L 900 679 Q 904 678 906 680 L 908 680 L 908 636 L 904 637 L 896 636 Z M 900 687 L 897 688 L 896 691 L 897 697 L 901 699 L 906 698 L 908 695 L 907 688 Q 905 686 900 687 Z M 915 687 L 916 692 L 915 698 L 919 699 L 921 699 L 925 698 L 949 698 L 948 696 L 949 691 L 949 687 L 915 687 Z M 959 687 Q 955 689 956 696 L 961 699 L 966 698 Q 969 696 968 691 Q 967 686 959 687 Z " /><path fill="rgb(185,13,16)" stroke="rgb(185,13,16)" stroke-width="1" opacity="0.7450980392156863" d="M 1143.5 610 L 1146.5 611 L 1149.5 611 L 1155 615.5 L 1164.5 627 Q 1166.8 626.3 1166 628.5 L 1176.5 639 L 1190 625.5 L 1199.5 614 Q 1203 609.5 1212.5 611 L 1220 616.5 Q 1223.2 619.8 1222 627.5 L 1220 631.5 Q 1205.6 643.1 1195 658.5 L 1202.5 667 Q 1204.8 666.3 1204 668.5 L 1220 684.5 Q 1223.2 687.8 1222 695.5 L 1216.5 703 Q 1212.8 706.3 1204.5 705 L 1196 698.5 L 1178 677 L 1174 678 Q 1175.1 680.7 1172.5 680 L 1162 693 L 1158 695.5 L 1150.5 704 Q 1147.3 706.3 1140.5 705 L 1132 698.5 L 1131 687.5 L 1138 678 L 1146 671.5 L 1158 658.5 L 1158 656 Q 1155.3 657.1 1156 654.5 L 1153 653 L 1153 651.5 L 1134 632.5 Q 1130 629 1131 620.5 L 1137.5 612 L 1143.5 610 Z M 1144 617 L 1142 618 L 1138 623 L 1139 628 Q 1141 631 1148 630 L 1151 626 L 1149 620 L 1144 617 Z M 1207 618 L 1203 622 Q 1202 627 1204 629 L 1209 631 L 1212 630 Q 1216 629 1215 622 Q 1214 617 1207 618 Z M 1197 629 L 1182 645 Q 1181 647 1184 646 L 1186 650 L 1190 652 L 1204 638 L 1204 636 L 1201 635 L 1197 629 Z M 1156 630 L 1156 632 L 1150 636 L 1150 639 Q 1153 638 1152 641 L 1165 652 L 1168 648 L 1171 645 L 1166 640 L 1164 637 L 1162 635 L 1159 632 L 1156 630 Z M 1176 651 L 1170 657 Q 1170 661 1173 662 Q 1172 664 1175 663 L 1175 665 L 1179 664 Q 1183 662 1183 657 L 1178 651 L 1176 651 Z M 1164 664 L 1160 666 L 1149 680 Q 1154 680 1156 685 Q 1155 687 1158 686 L 1171 671 L 1164 664 Z M 1189 664 L 1182 671 L 1189 680 L 1197 686 L 1198 684 L 1203 680 Q 1205 681 1204 679 L 1189 664 Z M 1144 685 L 1142 686 L 1138 691 L 1139 696 Q 1141 699 1147 698 L 1151 693 L 1150 689 Q 1148 685 1144 685 Z M 1207 686 L 1204 687 L 1202 693 L 1204 697 L 1209 699 L 1215 695 L 1214 689 Q 1213 685 1207 686 Z " /></svg>